<svg width="146" height="146" viewBox="0 0 146 146" fill="none" xmlns="http://www.w3.org/2000/svg">
<path d="M123.757 0H21.8395C9.77789 0 0 9.77789 0 21.8395V123.757C0 135.819 9.77789 145.597 21.8395 145.597H123.757C135.819 145.597 145.597 135.819 145.597 123.757V21.8395C145.597 9.77789 135.819 0 123.757 0Z" fill="#1877F2"/>
<path d="M101.122 93.8419L104.363 72.7986H84.1732V59.1489C84.1732 53.4046 86.9885 47.7741 96.0314 47.7741H105.216V29.8589C105.216 29.8589 96.8845 28.437 88.9222 28.437C72.2866 28.437 61.4237 38.5037 61.4237 56.7602V72.7986H42.9397V93.8419H61.4237V145.597H84.1732V93.8419H101.122Z" fill="white"/>
</svg>
