<svg width="146" height="146" viewBox="0 0 146 146" fill="none" xmlns="http://www.w3.org/2000/svg">
<path d="M123.757 0H21.8395C9.77789 0 0 9.77789 0 21.8395V123.757C0 135.819 9.77789 145.597 21.8395 145.597H123.757C135.819 145.597 145.597 135.819 145.597 123.757V21.8395C145.597 9.77789 135.819 0 123.757 0Z" fill="black"/>
<path d="M123.757 0H21.8395C9.77789 0 0 9.77789 0 21.8395V123.757C0 135.819 9.77789 145.597 21.8395 145.597H123.757C135.819 145.597 145.597 135.819 145.597 123.757V21.8395C145.597 9.77789 135.819 0 123.757 0Z" fill="url(#paint0_radial_68_1845)"/>
<path d="M123.757 0H21.8395C9.77789 0 0 9.77789 0 21.8395V123.757C0 135.819 9.77789 145.597 21.8395 145.597H123.757C135.819 145.597 145.597 135.819 145.597 123.757V21.8395C145.597 9.77789 135.819 0 123.757 0Z" fill="url(#paint1_linear_68_1845)"/>
<path d="M93.5574 29.0056H52.0395C39.3182 29.0056 29.0056 39.3182 29.0056 52.0395V93.5574C29.0056 106.279 39.3182 116.591 52.0395 116.591H93.5574C106.279 116.591 116.591 106.279 116.591 93.5574V52.0395C116.591 39.3182 106.279 29.0056 93.5574 29.0056Z" stroke="white" stroke-width="8.53107"/>
<path d="M72.7985 93.2731C84.1063 93.2731 93.2731 84.1063 93.2731 72.7985C93.2731 61.4907 84.1063 52.324 72.7985 52.324C61.4907 52.324 52.324 61.4907 52.324 72.7985C52.324 84.1063 61.4907 93.2731 72.7985 93.2731Z" stroke="white" stroke-width="8.53107"/>
<path d="M98.6761 48.627C99.6184 48.627 100.382 47.8631 100.382 46.9208C100.382 45.9785 99.6184 45.2146 98.6761 45.2146C97.7337 45.2146 96.9698 45.9785 96.9698 46.9208C96.9698 47.8631 97.7337 48.627 98.6761 48.627Z" stroke="white" stroke-width="8.53107"/>
<defs>
<radialGradient id="paint0_radial_68_1845" cx="0" cy="0" r="1" gradientUnits="userSpaceOnUse" gradientTransform="translate(58.2388 145.597) scale(145.597)">
<stop offset="0.1" stop-color="#FFDD55"/>
<stop offset="0.5" stop-color="#FF543E"/>
<stop offset="1" stop-color="#C837AB"/>
</radialGradient>
<linearGradient id="paint1_linear_68_1845" x1="0" y1="0" x2="29.1194" y2="145.597" gradientUnits="userSpaceOnUse">
<stop offset="0.1" stop-color="#3771C8"/>
<stop offset="0.5" stop-color="#6600FF" stop-opacity="0"/>
</linearGradient>
</defs>
</svg>
