<svg width="146" height="146" viewBox="0 0 146 146" fill="none" xmlns="http://www.w3.org/2000/svg">
<path d="M123.757 0H21.8395C9.77789 0 0 9.77789 0 21.8395V123.757C0 135.819 9.77789 145.597 21.8395 145.597H123.757C135.819 145.597 145.597 135.819 145.597 123.757V21.8395C145.597 9.77789 135.819 0 123.757 0Z" fill="white"/>
<mask id="mask0_68_1862" style="mask-type:luminance" maskUnits="userSpaceOnUse" x="34" y="18" width="77" height="110">
<path d="M106.638 38.6741C104.329 34.2099 101.153 30.2508 97.2953 27.0283C93.438 23.8058 88.9771 21.3844 84.1733 19.9057C80.4879 18.7732 76.654 18.1981 72.7985 18.1995C67.2112 18.1699 61.6868 19.3786 56.6223 21.7387C51.5579 24.0989 47.0793 27.5518 43.5085 31.8492C37.7728 38.7035 34.6497 47.3675 34.6931 56.3049C34.6931 67.111 38.3899 74.5046 38.3899 74.5046C42.6554 83.6044 50.3334 91.8511 55.7364 98.9603C58.8662 103.028 61.7165 107.303 64.2674 111.757C66.282 115.563 67.9019 119.565 69.1017 123.7C69.9548 126.544 70.8079 127.397 72.7985 127.397C74.7891 127.397 75.9266 125.975 76.4953 123.7C77.6324 119.676 79.1562 115.772 81.0452 112.041C84.813 105.729 89.0929 99.7373 93.8418 94.126C95.2637 92.4198 102.942 83.0356 106.638 75.9264C106.638 75.9264 110.904 67.6797 110.904 56.5893C110.904 46.0677 106.638 38.6741 106.638 38.6741Z" fill="white"/>
</mask>
<g mask="url(#mask0_68_1862)">
<path d="M29.5742 107.776L72.7983 56.3052L29.5742 107.776Z" fill="black"/>
<path d="M29.5742 107.776L72.7983 56.3052" stroke="#FBBC04" stroke-width="36.968"/>
<path d="M72.7983 56.305L107.491 15.0715L72.7983 56.305Z" fill="black"/>
<path d="M72.7983 56.305L107.491 15.0715" stroke="#4285F4" stroke-width="36.968"/>
<path d="M53.7456 130.525L122.847 48.0583L53.7456 130.525Z" fill="black"/>
<path d="M53.7456 130.525L122.847 48.0583" stroke="#34A853" stroke-width="36.968"/>
<path d="M72.514 34.1243L50.0488 15.0715L72.514 34.1243Z" fill="black"/>
<path d="M72.514 34.1243L50.0488 15.0715" stroke="#1A73E8" stroke-width="36.968"/>
<path d="M21.6121 65.9735L47.4896 34.9773L21.6121 65.9735Z" fill="black"/>
<path d="M21.6121 65.9735L47.4896 34.9773" stroke="#EA4335" stroke-width="36.968"/>
</g>
<path d="M72.7985 70.8079C80.8082 70.8079 87.3013 64.3148 87.3013 56.3051C87.3013 48.2954 80.8082 41.8022 72.7985 41.8022C64.7888 41.8022 58.2957 48.2954 58.2957 56.3051C58.2957 64.3148 64.7888 70.8079 72.7985 70.8079Z" fill="white"/>
</svg>
