<svg version="1.1" id="Layer_1" xmlns="http://www.w3.org/2000/svg" xmlns:xlink="http://www.w3.org/1999/xlink" x="0px" y="0px"
	 width="100%" viewBox="0 0 736 1024" enable-background="new 0 0 736 1024" xml:space="preserve">
<path fill="#000000" opacity="1.000000" stroke="none" 
	d="
M231.418854,214.329346 
	C260.095764,200.798813 289.629395,191.385193 320.652771,186.576019 
	C362.991913,180.012680 404.967773,181.625153 446.603180,191.577057 
	C502.630829,204.969040 551.569153,231.623886 593.261658,271.291992 
	C640.901367,316.618530 672.414185,371.388306 686.481995,435.678955 
	C703.554810,513.702820 693.366821,588.386230 655.968933,658.961731 
	C632.432617,703.378174 599.806885,740.117004 558.804749,769.380615 
	C512.491394,802.434814 461.006134,822.130676 404.533630,827.863586 
	C340.265472,834.387817 279.054077,823.015625 221.748459,792.778381 
	C156.605789,758.405823 108.548264,707.572937 77.477890,640.834595 
	C62.024723,607.641541 52.864841,572.676819 49.601833,536.169189 
	C43.812984,471.401581 55.768524,410.164551 86.607742,352.884003 
	C114.466507,301.139282 153.646667,259.934448 203.895279,229.337494 
	C212.724289,223.961395 221.770874,218.990173 231.418854,214.329346 
M540.299438,347.589111 
	C542.695740,350.380249 545.092041,353.171417 547.488342,355.962555 
	C545.516479,352.451569 543.836975,348.671936 539.778809,346.376587 
	C537.230896,342.675720 533.912964,339.783875 529.939697,337.576263 
	C533.297791,340.710114 536.655823,343.843964 540.299438,347.589111 
M555.616089,249.467773 
	C550.739258,245.270996 545.276489,241.998276 539.628052,239.015579 
	C545.139099,242.606232 549.884583,247.368378 556.347168,250.562820 
	C561.127014,255.571182 567.219604,258.840546 572.651611,262.988953 
	C567.324951,258.367310 562.538025,253.051163 555.616089,249.467773 
M595.194580,283.634583 
	C599.514954,289.513733 604.680786,294.590851 609.930542,299.589630 
	C605.573914,293.478302 600.554382,287.986481 594.600891,282.464478 
	C588.874939,276.579773 583.223877,270.611237 576.322449,266.042053 
	C582.061890,272.234406 587.993347,278.211823 595.194580,283.634583 
M154.937866,590.237854 
	C152.656662,583.024170 150.375473,575.810547 148.094284,568.596863 
	C149.524658,576.354431 151.120255,584.052917 155.166275,591.737305 
	C158.752625,602.391602 163.789581,612.324951 169.998886,621.677124 
	C164.285797,611.806091 160.918945,600.783142 154.937866,590.237854 
M656.919922,371.260773 
	C655.415222,366.251404 652.756042,361.860657 649.162048,357.955780 
	C651.775879,362.636444 654.389709,367.317108 657.103333,372.747986 
	C657.584412,374.155792 657.953552,375.614197 658.563232,376.963928 
	C669.570923,401.332397 677.155945,426.746521 681.807800,453.051666 
	C682.630920,457.706207 683.214294,462.403168 683.908386,467.080536 
	C684.525696,465.344116 684.749878,463.670105 684.491699,462.074188 
	C681.144470,441.383209 676.936523,420.896881 669.613953,401.175659 
	C665.921143,391.230194 662.650818,381.100952 656.919922,371.260773 
M567.804871,382.337341 
	C565.378784,377.114563 561.849060,372.676422 557.908020,368.527130 
	C561.215027,373.393524 563.743958,378.797272 568.164490,383.688141 
	C568.875244,385.188690 569.480469,386.750671 570.312866,388.180359 
	C580.062317,404.925385 588.073669,422.405457 593.377319,441.104919 
	C597.043091,454.029266 599.412720,467.207733 601.707336,481.594208 
	C601.981689,477.725586 601.687073,475.103516 601.298157,472.451019 
	C598.582092,453.927460 594.121155,435.854553 586.895081,418.568146 
	C581.705566,406.153595 576.424500,393.731415 567.804871,382.337341 
M386.194000,251.156815 
	C373.442627,253.702972 366.524414,249.543564 366.324005,238.143997 
	C366.235321,233.097397 364.953491,227.457077 369.159912,222.713776 
	C370.816193,220.846130 372.378876,218.073151 372.196655,214.984711 
	C370.120331,213.592636 368.126373,213.938446 365.788971,214.967834 
	C366.855316,217.993805 365.296051,220.384094 363.825684,222.787033 
	C360.569183,228.108780 359.452576,233.846924 360.306091,240.016891 
	C362.155823,253.388702 376.240784,259.184814 387.705231,251.057999 
	C388.289673,251.342545 389.173248,251.476028 389.406555,251.937912 
	C390.393890,253.892792 391.587463,255.372406 394.024109,254.585663 
	C396.414032,253.813995 395.862823,251.647781 395.880157,249.930481 
	C395.996552,238.389236 397.190430,226.843536 395.891724,214.498657 
	C393.633118,216.205170 391.407928,213.360428 389.312012,215.257599 
	C391.486389,227.461426 393.606995,239.515656 386.194000,251.156815 
M251.477600,731.465698 
	C256.971375,734.247742 261.061951,738.268372 262.582977,744.776062 
	C264.682129,742.624390 265.869385,740.577820 266.206604,737.942017 
	C261.240448,735.250977 256.883606,731.479248 250.519531,730.463135 
	C242.049301,726.615173 233.792755,728.247864 227.899307,734.936157 
	C223.053314,740.435669 221.283798,753.966431 224.965652,759.549500 
	C228.725830,765.251343 233.964035,768.777405 241.036957,769.027100 
	C242.684341,769.085327 244.404282,768.911194 245.717407,770.482544 
	C244.357422,776.458679 239.437653,778.828491 233.518707,781.304443 
	C239.796616,782.928040 243.591064,780.805298 246.282578,776.567139 
	C248.506836,773.064758 250.322647,769.303162 252.324036,765.658936 
	C254.456451,761.776306 252.699875,760.289124 248.818604,759.813110 
	C248.038086,762.135254 250.859009,765.273010 246.460617,766.405090 
	C238.120132,768.551697 229.230743,762.881592 228.759415,754.255493 
	C228.122375,742.596619 235.146103,730.177185 251.477600,731.465698 
M524.466797,669.969360 
	C581.466614,614.282654 604.761597,546.655090 592.213501,468.238861 
	C582.175537,405.509155 549.135315,355.968323 496.512054,320.188843 
	C443.407501,284.082031 384.738220,273.325500 322.460022,287.214600 
	C250.114990,303.348755 198.294266,346.742493 166.911819,413.459564 
	C144.597397,460.898621 141.052460,510.836517 153.899811,561.718384 
	C165.917603,609.314880 191.128967,648.844360 229.088684,679.749512 
	C278.729004,720.164612 335.799744,736.450745 399.375000,728.785461 
	C447.192657,723.020020 488.564087,703.008118 524.466797,669.969360 
M430.785126,196.615494 
	C455.842804,201.350693 479.879883,209.362854 503.264984,219.468597 
	C414.596558,174.968460 274.311035,172.191544 165.160110,265.925018 
	C61.843647,354.648132 25.691261,499.146484 79.179451,627.802002 
	C132.886993,756.985168 264.556122,837.553223 408.905396,820.647217 
	C535.003479,805.878845 625.261963,717.485657 657.907104,637.406006 
	C656.407471,640.151062 655.129333,643.005981 653.710571,645.789307 
	C619.906982,712.102417 569.568420,761.345642 501.940582,792.720032 
	C464.576630,810.054260 425.155823,819.009644 384.145447,821.011597 
	C355.192780,822.424927 326.551849,819.464294 298.390747,812.662109 
	C254.557739,802.074402 214.734360,783.120422 179.050674,755.352661 
	C135.921661,721.791260 103.436447,680.103638 81.910355,629.914307 
	C56.259537,570.107910 50.347179,508.116241 62.729496,444.450165 
	C72.881065,392.253815 95.399544,345.804382 129.393814,304.815887 
	C160.134979,267.749756 197.224518,239.019592 241.037552,219.238373 
	C272.952911,204.828857 306.282867,195.425583 341.416321,192.412048 
	C371.179840,189.859070 400.620483,191.034271 430.785126,196.615494 
M259.637299,708.911255 
	C238.099915,697.354065 219.388687,682.090942 202.068329,665.057800 
	C229.050415,695.160217 261.912354,717.153076 300.550262,728.073120 
	C404.268829,757.386902 489.993622,727.426147 558.811462,645.711060 
	C561.044434,647.756958 559.457397,649.629944 558.652283,651.567322 
	C557.864868,653.462402 555.671082,654.742920 556.062805,657.208008 
	C566.170471,656.725464 567.639648,657.963623 569.259827,668.130005 
	C569.547546,669.935425 569.866272,671.744019 570.317017,673.513855 
	C571.436890,677.911194 573.444031,681.468933 576.976746,684.795654 
	C585.236267,692.573547 595.192139,691.661621 601.751709,687.668091 
	C609.863098,682.729797 614.162170,672.600342 611.963440,663.566833 
	C609.926453,655.197510 604.592529,650.375305 596.574463,647.399292 
	C591.185059,645.398926 586.429688,645.575806 581.920837,648.499451 
	C577.359619,651.457031 574.825195,656.021484 574.833435,661.563843 
	C574.838074,664.683960 576.376221,667.110657 580.104004,668.471008 
	C577.767944,664.147156 575.120178,660.428955 578.452637,656.074585 
	C581.530090,652.053528 586.487732,650.788635 592.510742,652.657593 
	C599.754578,654.905518 605.099670,659.560486 608.164307,666.409180 
	C610.288696,671.156677 610.766418,676.511353 606.854553,680.509338 
	C602.833984,684.618469 596.794861,686.377869 591.642883,685.021118 
	C584.936584,683.255127 579.035400,678.947144 576.041687,672.057495 
	C573.590454,666.416260 570.372498,661.093506 568.855469,655.057373 
	C567.891968,651.223877 566.062256,647.821411 562.887085,645.482666 
	C560.013184,643.365967 560.231567,641.605103 562.160339,638.894592 
	C575.886292,619.605225 586.208984,598.595215 593.222900,575.990540 
	C598.063904,560.388489 601.309631,544.455078 602.890442,527.373535 
	C601.266296,529.654602 601.383118,531.527954 601.140442,533.289490 
	C599.593750,544.517212 597.756714,555.723206 594.620728,566.600159 
	C576.172058,630.589050 538.033325,678.949158 479.228699,710.572571 
	C439.434662,731.972595 396.722595,740.401367 351.858643,736.883057 
	C319.463409,734.342529 288.694122,725.487732 259.637299,708.911255 
M531.644531,741.360229 
	C531.148438,730.390808 525.934448,722.729919 517.280457,720.255249 
	C509.497345,718.029480 500.130249,722.177734 494.374847,730.598694 
	C493.063934,732.516724 491.831116,733.330688 489.454376,732.617493 
	C486.507477,731.733032 484.228088,733.084412 481.562469,735.915710 
	C493.975555,737.448608 497.021912,748.140259 501.573029,755.894958 
	C506.515106,764.315735 512.266113,772.458984 515.673340,782.454285 
	C518.538696,778.907532 517.570679,776.127380 516.362610,773.347778 
	C511.237274,761.555481 503.988525,750.941040 497.739380,739.771973 
	C496.780853,738.058899 495.688934,736.486328 496.427124,734.204346 
	C499.237946,725.514771 513.148010,721.756348 519.857971,727.967896 
	C525.513672,733.203674 527.936646,745.053955 524.802185,752.161194 
	C523.352844,755.447388 520.985352,757.939880 517.303650,757.802246 
	C513.507507,757.660461 513.524475,754.067749 513.151611,750.936279 
	C510.511261,753.222717 510.287598,755.464600 511.575623,757.983521 
	C512.929016,760.630249 515.280701,761.105774 517.927307,760.854187 
	C522.076111,760.459900 524.923828,757.990967 527.219788,754.785767 
	C529.907593,751.033447 530.913086,746.658142 531.644531,741.360229 
M194.587555,705.704041 
	C189.156433,713.539246 182.213715,719.475342 172.520813,722.789673 
	C184.155701,724.317444 191.845215,718.608398 197.627930,710.450623 
	C203.927368,701.563965 202.110275,693.522522 193.743134,686.319153 
	C191.207535,684.136169 187.912109,683.270630 185.224167,680.990723 
	C187.582535,676.130615 192.758499,673.822083 195.126984,669.230042 
	C193.543091,666.959961 191.706619,665.434387 188.733032,664.716980 
	C187.503448,669.459961 184.057755,672.575439 180.768494,675.843689 
	C172.405777,684.152954 164.088730,692.508484 155.794022,700.885681 
	C154.457642,702.235413 152.513931,703.517883 154.779282,705.812439 
	C157.082062,708.144958 158.327789,706.109497 159.666885,704.790833 
	C165.704636,698.845398 171.759171,692.913574 177.655670,686.829468 
	C180.852631,683.530823 184.200958,683.375610 188.046692,685.375793 
	C195.148590,689.069397 197.956512,696.933899 194.587555,705.704041 
M548.602173,719.926453 
	C541.474304,714.490540 540.443970,705.850159 537.687927,697.882690 
	C534.500549,699.346985 533.174377,701.922913 529.959717,704.444580 
	C535.092224,704.146545 535.763794,707.004822 536.406189,710.057861 
	C536.848328,712.159180 537.499695,714.257568 538.365356,716.221497 
	C541.950623,724.356018 548.023438,729.508667 557.089478,729.649597 
	C565.526978,729.780823 570.320374,724.471985 573.105591,716.977478 
	C573.592834,715.666321 573.989502,713.877808 576.190308,714.747498 
	C579.209473,715.940613 580.194214,713.678650 581.841370,711.495056 
	C572.752563,701.732117 563.804565,692.120483 554.368225,681.984253 
	C553.000854,685.516541 549.270081,685.419189 548.093689,688.477417 
	C550.634216,690.131470 553.953979,689.115051 556.033447,691.474426 
	C560.541260,696.589111 565.338806,701.462646 569.631409,706.748596 
	C573.176514,711.114136 572.840698,715.086243 569.391113,719.456421 
	C563.680786,726.690735 557.521729,726.982910 548.602173,719.926453 
M287.250763,780.307434 
	C289.419495,785.578247 291.448822,790.999390 298.568054,790.683289 
	C294.193176,783.713440 291.909088,775.542786 287.205139,768.790100 
	C289.318512,766.789612 291.262451,767.022766 293.003906,766.611755 
	C298.943634,765.209717 304.159485,759.325073 303.648224,754.586914 
	C303.142670,749.901794 297.971863,746.858276 290.692657,747.051758 
	C288.537903,747.109070 286.572510,747.369385 284.696075,745.583313 
	C282.365570,743.364929 280.816193,743.821899 280.164215,747.404968 
	C279.255829,752.396912 278.292786,757.360046 276.354584,762.182617 
	C273.726227,768.722229 271.511383,775.490845 270.360870,782.593445 
	C273.821808,784.002075 275.539001,783.047119 276.597565,779.818787 
	C277.744476,776.320862 278.064087,772.410950 280.831360,769.264648 
	C284.498077,772.033569 284.993286,776.268250 287.250763,780.307434 
M360.814850,760.948669 
	C355.268494,759.201843 349.731842,756.920593 343.845734,757.341492 
	C335.416565,757.944397 328.090607,760.853943 324.303925,769.304382 
	C320.478638,777.841003 321.734100,786.939514 327.537872,792.506592 
	C334.928375,799.595886 346.719818,801.805847 354.792816,797.580811 
	C357.009644,796.420593 358.967102,794.997192 359.338318,792.286926 
	C358.150726,791.585999 357.539886,792.310730 356.867584,792.700317 
	C342.826111,800.837036 330.755463,795.493713 327.362701,779.633362 
	C326.334747,774.827881 328.201691,772.487305 333.334229,772.847961 
	C342.540161,773.494934 351.852356,773.628540 361.416809,778.031006 
	C360.812714,771.717957 364.124176,766.522278 360.814850,760.948669 
M267.445129,269.958344 
	C259.873688,264.112701 252.006256,258.663696 244.794952,252.334259 
	C237.706619,246.112762 235.066238,246.098053 228.487411,251.249496 
	C235.600891,252.281281 237.324692,253.897583 235.326584,258.243042 
	C232.037903,265.395264 232.588165,272.826385 233.443161,280.213715 
	C233.895844,284.125092 235.851501,287.669891 238.712936,290.568207 
	C241.874969,289.556213 243.314499,286.909607 243.895813,284.599548 
	C245.281479,279.093140 249.527603,275.690033 252.456818,271.341034 
	C253.465652,269.843231 254.700821,268.178589 256.928131,269.577423 
	C259.298431,271.066040 262.054230,272.241058 263.865631,274.252075 
	C266.909882,277.631775 268.833099,276.116760 271.048859,273.742126 
	C270.652710,271.814484 269.150513,271.247070 267.445129,269.958344 
M544.081116,269.940430 
	C542.899292,268.819855 541.849243,267.397217 539.327026,268.232483 
	C540.618958,274.775177 536.233215,274.727570 531.345703,275.522125 
	C524.500122,276.634979 517.912903,279.300751 512.756897,284.259277 
	C510.441162,286.486328 508.214600,289.076996 507.799194,293.016113 
	C510.685059,294.196625 513.507812,295.113617 516.521790,294.402313 
	C522.023926,293.103699 526.969543,295.452240 532.110229,296.523926 
	C533.626038,296.839905 534.315491,297.913757 534.187134,299.464844 
	C533.971436,302.072296 534.310242,304.902740 533.391907,307.236542 
	C531.685364,311.573517 533.886963,312.848846 537.256592,313.940735 
	C537.631287,313.287903 538.039490,312.882812 538.095947,312.433502 
	C539.576538,300.657501 542.406311,289.141022 544.718384,277.524353 
	C545.167725,275.266571 545.294189,272.887878 544.081116,269.940430 
M431.081360,261.718201 
	C436.403320,261.963989 442.010101,263.267426 446.492310,258.071198 
	C444.200256,256.930206 442.899872,258.100677 441.533752,258.459717 
	C428.729919,261.824951 417.833740,253.911758 417.271027,240.757217 
	C417.017365,234.827911 419.571930,232.714508 425.538361,234.221649 
	C434.121399,236.389755 443.188110,236.913696 451.210510,242.449448 
	C452.471100,236.521683 453.564301,231.380936 454.726807,225.914291 
	C451.974792,225.659073 449.989929,224.502502 447.901215,223.551117 
	C438.472076,219.256241 428.869263,218.031815 420.148590,224.744003 
	C413.410675,229.930054 410.936707,237.668625 412.650360,245.798004 
	C414.566467,254.887817 421.942169,259.020905 431.081360,261.718201 
M337.657867,253.416962 
	C330.407227,256.959900 325.454315,256.709717 320.641357,252.232101 
	C314.703766,246.708176 311.884033,239.145706 314.018463,231.903824 
	C317.877625,218.810150 327.775208,216.083847 339.892822,221.320190 
	C340.661835,218.798599 340.065735,217.352798 338.944550,215.956116 
	C332.550751,216.077377 326.352509,217.167816 320.407562,219.408081 
	C313.757477,221.914047 309.192566,226.311920 307.879364,233.659760 
	C306.726593,240.109833 308.581635,244.988708 312.812317,250.290833 
	C318.998260,258.043427 323.197815,260.339996 332.863037,257.878601 
	C336.505768,256.950897 339.128815,254.226913 342.742279,253.117630 
	C346.283356,258.307220 343.088928,263.165009 341.913239,268.425720 
	C344.914062,266.963379 346.348022,264.959534 346.724670,262.393219 
	C347.639435,256.160858 346.095551,250.119354 344.683014,244.152481 
	C344.004150,241.284866 342.184814,242.460434 340.518768,244.017929 
	C344.142517,248.184631 341.259735,250.631134 337.657867,253.416962 
M139.517380,646.054016 
	C130.076965,649.165405 125.909042,656.323059 127.201485,667.204224 
	C128.189117,675.519104 135.475662,683.292053 143.510101,683.507263 
	C138.136063,679.083984 131.600922,675.632996 131.622223,667.332275 
	C131.644043,658.835876 136.508331,654.371033 143.487610,651.163330 
	C147.470551,649.332825 151.459930,649.056091 155.629654,650.343140 
	C163.513092,652.776428 165.348129,659.593201 166.575211,666.572266 
	C168.935837,666.325989 170.074600,665.534302 171.131195,663.779358 
	C167.983994,661.020691 167.317200,656.697937 165.088699,653.252747 
	C162.479248,649.218628 158.424667,646.916321 154.070953,644.965210 
	C149.204971,642.784485 144.756409,643.954041 139.517380,646.054016 
M178.959061,273.705994 
	C183.517395,276.667480 186.689880,281.152222 189.566757,285.404236 
	C195.274902,293.840912 201.871155,301.555023 207.822906,309.772095 
	C209.536819,312.138336 211.263107,311.770844 213.293121,310.170776 
	C216.037140,308.007935 218.753494,305.749939 221.742065,303.969818 
	C228.103867,300.180450 228.172668,300.295959 224.926666,293.103394 
	C222.231491,296.878815 219.998123,300.734253 216.431747,303.589844 
	C213.711990,305.767578 212.309875,305.459259 209.903198,302.958557 
	C203.647217,296.458221 199.714478,288.295837 193.840149,281.543152 
	C189.846176,276.952026 186.244705,272.019440 182.400650,267.154663 
	C179.812729,268.865234 178.570862,271.136871 175.411057,272.111847 
	C176.943359,272.847076 177.644363,273.183441 178.959061,273.705994 
M489.371552,245.721878 
	C478.042725,247.121201 472.554901,253.119110 471.861237,264.859772 
	C471.253906,275.139404 478.194427,281.874329 488.582733,281.051788 
	C488.162201,279.838989 486.933929,280.137665 486.109070,279.771057 
	C477.754211,276.057800 474.692200,269.058136 478.222565,260.611176 
	C480.606781,254.906525 483.780945,249.617828 489.371552,245.721878 
M221.066132,722.625793 
	C227.907623,713.833618 227.873184,713.254028 219.712265,709.812561 
	C221.346024,714.324158 219.010101,717.369873 216.637421,720.429077 
	C211.358429,727.235596 206.992737,734.728027 201.037827,741.032715 
	C198.491531,743.728516 199.389343,745.684998 203.042480,747.120178 
	C204.315384,745.438049 205.620239,743.761536 206.874374,742.047852 
	C211.468826,735.770020 216.046387,729.479797 221.066132,722.625793 
M315.574524,281.016266 
	C317.359955,280.622742 319.145416,280.229218 320.930847,279.835693 
	C291.286011,284.604919 264.983795,297.240204 240.559799,314.183502 
	C263.485565,299.090881 288.373230,288.406860 315.574524,281.016266 
M140.725693,523.618530 
	C138.673294,504.669373 140.756180,485.850403 142.386612,467.017731 
	C137.836960,488.519135 137.127930,510.134735 140.755676,531.880005 
	C140.755676,529.430054 140.755676,526.980103 140.725693,523.618530 
M670.828674,607.397461 
	C673.152893,600.698364 675.387085,593.976379 676.120850,586.880249 
	C673.177612,596.205627 670.234436,605.531006 667.291199,614.856384 
	C667.545227,614.936096 667.799316,615.015747 668.053345,615.095398 
	C668.908813,612.777771 669.764282,610.460205 670.828674,607.397461 
M178.001038,377.359100 
	C173.777237,382.181732 170.812241,387.743561 168.693024,393.809418 
	C171.883331,388.441986 175.073639,383.074554 178.001038,377.359100 
M146.476852,449.006012 
	C146.386978,448.869781 146.322723,448.661316 146.199982,448.617737 
	C146.078766,448.574707 145.779877,448.671082 145.760925,448.753021 
	C144.761032,453.076416 142.731384,457.227814 143.923523,461.941956 
	C144.768311,457.809662 145.613098,453.677368 146.476852,449.006012 
M143.608826,554.149536 
	C144.371735,557.163452 145.134644,560.177368 145.897552,563.191223 
	C146.151352,563.121155 146.405151,563.051086 146.658936,562.981079 
	C145.688522,558.653137 144.718109,554.325195 143.747681,549.997314 
	C143.528900,550.035400 143.310135,550.073547 143.091354,550.111633 
	C143.199799,551.221680 143.308243,552.331726 143.608826,554.149536 
M515.121582,225.597458 
	C518.834412,227.555847 522.547241,229.514236 526.260071,231.472626 
	C526.437012,231.088776 526.613892,230.704926 526.790833,230.321075 
	C522.489685,229.268631 519.511597,225.411911 515.121582,225.597458 
M483.273132,238.193253 
	C483.598328,238.242935 483.923615,238.326157 484.248718,238.325394 
	C484.374512,238.325089 484.612000,238.046066 484.609528,238.042969 
	C483.173431,236.220505 482.676239,233.064972 479.113129,233.876160 
	C478.762604,236.923630 481.011780,237.224792 483.273132,238.193253 
M425.213989,279.521149 
	C423.837402,279.409302 422.463226,278.708557 420.642914,279.622131 
	C425.062012,280.727478 429.088715,281.734680 434.370972,283.055908 
	C431.155457,280.372101 428.349701,280.635956 425.213989,279.521149 
z"/>
<path fill="#000000" opacity="1.000000" stroke="none" 
	d="
M375.021240,512.988647 
	C377.975464,520.037354 381.053162,527.037231 383.862640,534.143188 
	C396.259918,565.499207 399.848419,597.852722 394.894836,631.213989 
	C392.132751,649.815857 386.444427,667.488342 378.687683,684.542542 
	C377.552917,687.037476 376.863708,689.925720 373.098755,692.163879 
	C341.284760,632.479004 339.501526,572.559204 368.956146,511.112366 
	C366.843475,511.526123 366.529785,512.961853 365.780029,513.793884 
	C365.004639,514.654297 364.371277,515.649109 363.722778,516.616577 
	C331.334442,564.937256 286.169189,592.819153 228.699783,600.987061 
	C224.748184,601.548767 220.761368,601.904602 216.778931,602.186157 
	C215.208649,602.297180 213.228882,602.797485 212.315063,600.905701 
	C211.558334,599.339172 212.803284,598.084656 213.594681,596.837524 
	C225.745743,577.689514 240.456528,560.879578 258.334778,546.801758 
	C288.162781,523.314331 322.318115,511.063141 359.726837,506.990173 
	C360.496979,506.906311 361.261871,506.774506 362.068024,505.838806 
	C355.542908,505.028625 348.992767,504.381317 342.496674,503.382690 
	C286.375122,494.755096 242.525177,466.728241 210.737427,419.760345 
	C208.089600,415.848053 208.386368,411.726349 210.872208,407.716248 
	C232.170746,373.357727 261.600372,348.514221 298.656616,332.548889 
	C318.459106,324.017181 339.223419,319.717865 360.641418,318.216949 
	C362.272522,318.102661 363.998901,317.761902 365.648987,319.877808 
	C349.651703,346.762848 328.554810,368.769043 301.771118,385.446045 
	C274.977997,402.128937 245.575012,410.544281 214.266647,413.965057 
	C244.752029,416.038757 273.375397,423.776398 300.032532,438.399597 
	C326.636780,452.993774 348.062988,473.344147 365.859222,497.922943 
	C366.442902,495.331116 365.128296,493.453461 364.193207,491.545654 
	C351.284454,465.208252 344.939148,437.293671 345.088715,408.058472 
	C345.238251,378.828125 351.951630,350.986969 364.909790,324.720947 
	C367.337494,319.800079 368.451385,319.807861 372.731384,324.805267 
	C372.999634,324.993073 372.982880,324.967651 372.982880,324.967651 
	C377.446838,336.959473 382.526276,348.707855 386.098846,361.047119 
	C394.436310,389.843964 396.454987,418.821808 390.781586,448.427612 
	C387.875122,463.594696 383.257599,478.063568 377.139893,492.151581 
	C376.391144,493.875732 375.118378,495.548584 375.829285,498.707947 
	C412.990509,443.364532 464.140656,413.871307 530.153442,410.628326 
	C496.020691,467.824219 445.560089,499.149445 379.186127,505.996063 
	C410.850861,508.185150 440.521759,516.195190 467.896179,532.041260 
	C495.134766,547.808716 517.027527,568.917480 533.937012,596.391113 
	C526.106567,598.420776 519.542358,596.767639 513.071411,596.016113 
	C479.482269,592.114929 448.709351,580.753357 421.634735,560.229065 
	C405.091156,547.687927 390.526764,533.098083 378.114166,516.410156 
	C377.323517,515.347229 376.407776,514.377319 375.201050,512.847351 
	C374.363586,510.427124 373.424774,508.654205 373.606689,506.561340 
	C373.724487,505.206543 373.238647,503.832275 371.657471,503.527649 
	C370.300720,503.266235 369.507202,504.228668 369.058990,505.364899 
	C368.491974,506.802246 368.935944,508.167358 370.300018,508.704803 
	C372.475128,509.561829 373.345428,511.685272 375.021240,512.988647 
z"/>
<path fill="#000000" opacity="1.000000" stroke="none" 
	d="
M373.010803,325.003082 
	C372.756500,323.027649 370.965485,321.548920 371.219910,318.264740 
	C391.684784,317.966125 411.595428,321.149689 430.967194,327.745514 
	C478.622375,343.971466 512.880798,376.327087 530.251221,407.033966 
	C528.893677,408.851379 526.906799,408.193359 525.200928,408.120880 
	C466.358673,405.621033 418.476135,381.484497 381.750549,335.359344 
	C379.058777,331.978668 376.294708,328.655548 373.273560,325.136658 
	C372.982880,324.967651 372.999634,324.993073 373.010803,325.003082 
z"/>
<path fill="#000000" opacity="1.000000" stroke="none" 
	d="
M479.661743,608.531372 
	C497.156342,602.936768 514.592834,599.392761 533.025635,599.733643 
	C518.129700,627.619934 496.947571,649.347351 470.401001,665.809387 
	C442.056244,683.386475 411.238251,693.073730 377.400391,693.058044 
	C400.520935,651.672729 434.980011,624.234497 479.661743,608.531372 
z"/>
<path fill="#000000" opacity="1.000000" stroke="none" 
	d="
M265.375183,661.672852 
	C243.447388,646.517395 225.634506,627.980591 210.929901,604.144104 
	C242.231277,603.867126 270.342224,610.896057 296.903778,624.353577 
	C328.113007,640.165771 352.857422,663.037598 370.863159,693.372375 
	C332.308228,694.046875 297.439117,683.147705 265.375183,661.672852 
z"/>
<path fill="#000000" opacity="1.000000" stroke="none" 
	d="
M229.247772,477.966370 
	C236.371704,520.975952 230.043121,561.353271 209.270966,599.622742 
	C195.809494,578.260437 187.672714,555.133240 184.841156,530.306091 
	C178.910782,478.309052 193.046265,437.321899 206.797485,417.019806 
	C218.026474,436.146301 225.226700,456.220306 229.247772,477.966370 
z"/>
<path fill="#000000" opacity="1.000000" stroke="none" 
	d="
M558.753601,495.480774 
	C560.386658,530.720642 553.676758,563.580322 536.069397,594.180237 
	C522.856018,572.845032 514.522644,549.956482 511.935547,525.235962 
	C507.545593,483.288635 517.825928,429.495087 533.615662,411.827423 
	C548.974121,437.725555 556.963623,465.393738 558.753601,495.480774 
z"/>
<path fill="#000000" opacity="1.000000" stroke="none" 
	d="
M285.010376,753.171875 
	C287.225159,749.342773 290.636383,749.109009 293.894928,749.891846 
	C296.508881,750.519897 297.901093,752.980408 297.652618,755.711792 
	C297.320923,759.358154 295.247314,761.998840 291.617157,762.795776 
	C288.810791,763.411743 285.111298,765.834045 283.212708,763.346802 
	C280.979248,760.420837 284.343597,756.886780 285.010376,753.171875 
z"/>
<path fill="#000000" opacity="1.000000" stroke="none" 
	d="
M340.944366,761.443848 
	C346.447845,759.867676 351.273865,760.605835 355.573608,763.648315 
	C357.244629,764.830627 359.690399,766.442322 358.823303,768.720581 
	C357.869019,771.227783 355.269318,772.814331 352.416229,772.619995 
	C345.171692,772.126526 337.928619,771.477966 330.150604,769.664185 
	C332.397247,764.843445 336.487030,763.231384 340.944366,761.443848 
z"/>
<path fill="#000000" opacity="1.000000" stroke="none" 
	d="
M239.754944,257.282471 
	C241.035538,256.712738 242.220825,256.419250 242.750275,257.465973 
	C244.428131,260.783081 247.566605,262.437378 250.349609,264.496735 
	C252.110519,265.799713 252.833435,267.346497 251.245697,269.100861 
	C247.720886,272.995483 244.286972,277.016296 239.969879,280.106537 
	C235.594528,274.625580 235.483429,262.850159 239.754944,257.282471 
z"/>
<path fill="#000000" opacity="1.000000" stroke="none" 
	d="
M526.513550,280.306061 
	C529.043823,279.388519 531.221619,278.597534 533.428284,277.897491 
	C536.198975,277.018494 538.280945,277.736725 539.461548,280.861481 
	C536.992310,283.213135 536.113708,286.221161 536.065552,289.685913 
	C536.014282,293.375275 534.258667,295.152374 530.279358,293.855560 
	C525.768677,292.385620 521.237427,291.009644 516.791321,288.826141 
	C518.856262,284.237152 522.436462,282.266205 526.513550,280.306061 
z"/>
<path fill="#000000" opacity="1.000000" stroke="none" 
	d="
M424.994720,226.938766 
	C432.164673,222.723083 439.048035,221.837952 445.972260,226.514709 
	C448.379639,228.140686 451.075500,230.427551 450.123901,233.225937 
	C449.208313,235.918457 445.739105,236.792984 442.819214,236.317459 
	C435.691406,235.156616 428.444977,234.279999 422.058380,231.033447 
	C421.960632,228.595184 423.545929,228.041931 424.994720,226.938766 
z"/>
</svg>